<!DOCTYPE svg PUBLIC "-//W3C//DTD SVG 1.1//EN" "http://www.w3.org/Graphics/SVG/1.1/DTD/svg11.dtd">
<!-- Uploaded to: SVG Repo, www.svgrepo.com, Transformed by: SVG Repo Mixer Tools -->
<svg fill="#000000" height="800px" width="800px" version="1.1" id="Icons" xmlns="http://www.w3.org/2000/svg" xmlns:xlink="http://www.w3.org/1999/xlink" viewBox="-3.2 -3.2 38.40 38.40" xml:space="preserve" transform="matrix(1, 0, 0, 1, 0, 0)rotate(45)">
<g id="SVGRepo_bgCarrier" stroke-width="0" transform="translate(0,0), scale(1)">
<path transform="translate(-3.2, -3.2), scale(1.2)" d="M16,27.595913239887782C19.518321341376524,27.21423264929267,22.864810833117,26.00037414334724,25.11733446051143,23.270831609798375C27.419633089274672,20.48097317914135,28.247150204591538,16.897158072426578,27.790127248139584,13.308980393382644C27.258388702536337,9.134195837190557,26.106957528871245,4.679569951828482,22.477939560625376,2.5484198966590093C18.566562698102143,0.25145386086278254,13.681449135042644,0.7348366657573355,9.543944791010418,2.5938632210808414C5.252619149689269,4.52200338998807,1.5443920406006628,7.875367489302686,0.4426253773722859,12.4491307637423C-0.6733876658269689,17.082035026631846,0.5971352550453983,22.236157943015478,4.011556106615709,25.560464979083726C7.067060827892315,28.53532844355915,11.760378996165901,28.055843101783154,16,27.595913239887782" fill="#821c1c" strokewidth="0"/>
</g>
<g id="SVGRepo_tracerCarrier" stroke-linecap="round" stroke-linejoin="round" stroke="#CCCCCC" stroke-width="0.064"/>
<g id="SVGRepo_iconCarrier"> <g> <path d="M22,31H10c-0.4,0-0.7-0.2-0.9-0.5s-0.2-0.7,0-1l2-3c0.2-0.3,0.5-0.4,0.8-0.4h8c0.3,0,0.6,0.2,0.8,0.4l2,3 c0.2,0.3,0.2,0.7,0,1S22.4,31,22,31z"/> </g> <g> <path d="M17,10.6v9l7.4-3.6c0.3-0.2,0.6-0.5,0.6-0.9V6.6L17,10.6z"/> <path d="M16,8.9l8.1-4l-7.6-3.7c-0.3-0.1-0.6-0.1-0.9,0L7.9,4.8L16,8.9z"/> <path d="M15,10.6l-8-4v8.5c0,0.4,0.2,0.7,0.6,0.9l7.4,3.6V10.6z"/> </g> <path d="M29,4h-2.7C26.7,4.5,27,5.2,27,5.9v9.2c0,1.1-0.7,2.2-1.7,2.7l-8,3.9C16.9,21.9,16.5,22,16,22s-0.9-0.1-1.3-0.3l-8-3.9 c-1-0.5-1.7-1.6-1.7-2.7V5.9C5,5.2,5.3,4.5,5.7,4H3C2.4,4,2,4.4,2,5v19c0,0.6,0.4,1,1,1h26c0.6,0,1-0.4,1-1V5C30,4.4,29.6,4,29,4z"/> </g>
</svg>